<svg width="64" height="64" viewBox="0 0 64 64" fill="none" xmlns="http://www.w3.org/2000/svg">
<g clip-path="url(#clip0_113_9)">
<rect width="64" height="64" rx="16" fill="#121212"/>
<path d="M31.99 47.4526C28.5275 47.4526 25.67 46.3276 23.3975 44.0551C21.125 41.7826 20 38.9701 20 35.5926C20 32.2151 21.1475 29.4026 23.42 27.1526C25.6925 24.9026 28.55 23.7776 32.0125 23.7776C35.475 23.7776 38.3325 24.9026 40.605 27.1526C42.8775 29.4026 44.0025 32.2176 44.0025 35.5926C44.0025 38.9676 42.8775 41.7826 40.605 44.0551C38.3325 46.3276 35.475 47.4526 32.035 47.4526H31.9925H31.99ZM25.6475 16.5476H38.415V20.7251H25.6475V16.5476ZM36.5325 40.2876C37.7 39.0551 38.285 37.4951 38.285 35.6126C38.285 33.7301 37.7 32.1726 36.5325 30.9376C35.365 29.7026 33.85 29.0976 31.9875 29.0976C30.125 29.0976 28.6125 29.7026 27.4425 30.9376C26.2725 32.1726 25.69 33.7301 25.69 35.6126C25.69 37.4951 26.275 39.0526 27.4425 40.2876C28.61 41.5226 30.125 42.1276 31.9875 42.1276C33.85 42.1276 35.3625 41.5226 36.5325 40.2876Z" fill="#E9E9E9"/>
</g>
<defs>
<clipPath id="clip0_113_9">
<rect width="64" height="64" fill="white"/>
</clipPath>
</defs>
</svg>
