<svg xmlns="http://www.w3.org/2000/svg" viewBox="0 0 34.17 10.95" xmlns:v="https://vecta.io/nano"><path d="M4.22 9.95c-.93 0-1.7-.31-2.31-.93S1 7.64 1 6.72s.3-1.68.91-2.29 1.38-.91 2.3-.91c.78 0 1.44.21 1.97.62s.87.87 1 1.38l-1.48.42c-.07-.28-.24-.51-.51-.71s-.59-.3-.97-.3c-.49 0-.88.18-1.19.52s-.46.77-.46 1.27.15.91.46 1.27.71.53 1.2.53c.38 0 .7-.09.97-.29s.45-.42.52-.69l1.48.41c-.13.52-.46.98-.99 1.38s-1.21.62-1.99.62h0zm7.12-.02c-.94 0-1.71-.3-2.33-.92s-.92-1.38-.92-2.29.31-1.68.93-2.29 1.39-.91 2.33-.91 1.71.3 2.33.91.92 1.37.92 2.29-.3 1.68-.92 2.29-1.39.92-2.32.92h-.01zM9.62 1.56h3.46v1.13H9.62V1.56zm2.95 6.43c.32-.33.47-.76.47-1.27s-.16-.93-.47-1.27-.73-.5-1.23-.5-.91.16-1.23.5-.47.76-.47 1.27.16.93.47 1.27.73.5 1.23.5.91-.16 1.23-.5zm9.51-6.98v8.76h-1.6v-.74c-.47.61-1.12.91-1.95.91s-1.56-.3-2.13-.92-.86-1.38-.86-2.29.29-1.69.86-2.3a2.81 2.81 0 0 1 2.14-.91c.85 0 1.48.3 1.95.9V1h1.59zM18.8 8.52A1.65 1.65 0 0 0 20.03 8c.33-.34.5-.77.5-1.29s-.16-.93-.5-1.27a1.65 1.65 0 0 0-1.23-.5c-.49 0-.91.16-1.23.5-.32.33-.48.76-.48 1.28s.16.96.48 1.29.73.5 1.23.5h0zm5.76-5.67a.92.92 0 0 1-.67-.27c-.18-.18-.28-.4-.28-.67s.09-.47.28-.65a.91.91 0 0 1 .67-.26c.27 0 .49.09.67.26a.87.87 0 0 1 .28.65c0 .26-.09.49-.28.66s-.4.26-.67.26h0zm-.82.86h1.59v6.07h-1.59V3.71zm6.18 6.22c-.94 0-1.71-.3-2.33-.92s-.92-1.38-.92-2.29.31-1.68.93-2.29 1.39-.91 2.33-.91 1.71.3 2.33.91.92 1.37.92 2.29-.3 1.68-.92 2.29-1.39.92-2.32.92h-.01zm1.23-1.94c.32-.33.47-.76.47-1.27s-.16-.93-.47-1.27-.73-.5-1.23-.5-.91.16-1.23.5-.47.76-.47 1.27.16.93.47 1.27.73.5 1.23.5.91-.16 1.23-.5z"/></svg>